<svg xmlns="http://www.w3.org/2000/svg" aria-label="GitHub" role="img" viewBox="0 0 24 24">
<path fill="#181717" d="M12 .297a12 12 0 0 0-3.79 23.39c.6.11.82-.26.82-.58v-2.24c-3.34.73-4.04-1.42-4.04-1.42-.55-1.38-1.33-1.75-1.33-1.75-1.08-.74.08-.72.08-.72 1.2.08 1.82 1.22 1.82 1.22 1.06 1.82 2.8 1.29 3.49.98.1-.77.42-1.3.76-1.6-2.67-.3-5.47-1.34-5.47-5.93 0-1.31.47-2.38 1.24-3.22-.12-.3-.54-1.52.12-3.17 0 0 1.01-.32 3.3 1.23a11.5 11.5 0 0 1 6 0c2.28-1.55 3.29-1.23 3.29-1.23.66 1.65.24 2.87.12 3.17.77.84 1.24 1.91 1.24 3.22 0 4.6-2.8 5.63-5.48 5.93.43.37.82 1.1.82 2.22v3.3c0 .32.21.7.82.58A12 12 0 0 0 12 .297"/>
</svg>